<svg width="110" height="111" viewBox="0 0 110 111" fill="none"
    xmlns="http://www.w3.org/2000/svg">
    <path d="M43.125 52.8165V43.2832H5.125C3.86522 43.2832 2.65704 43.7854 1.76624 44.6793C0.875445 45.5733 0.375 46.7857 0.375 48.0499V95.7165C0.375 96.9807 0.875445 98.1932 1.76624 99.0871C2.65704 99.981 3.86522 100.483 5.125 100.483H12.25V110.017L26.5 100.483H57.375C58.6348 100.483 59.843 99.981 60.7338 99.0871C61.6246 98.1932 62.125 96.9807 62.125 95.7165V62.3499H52.625C50.1054 62.3499 47.6891 61.3455 45.9075 59.5576C44.1259 57.7698 43.125 55.3449 43.125 52.8165ZM36.1425 82.2507L34.955 79.0332H27.545L26.3575 82.2507C26.2483 82.5449 26.0825 82.8147 25.8695 83.0445C25.6564 83.2744 25.4003 83.46 25.1158 83.5905C24.8313 83.7211 24.524 83.7942 24.2114 83.8056C23.8987 83.8169 23.5869 83.7664 23.2937 83.6569C23.0006 83.5473 22.7318 83.3809 22.5027 83.1671C22.2736 82.9533 22.0887 82.6963 21.9586 82.4109C21.8285 82.1254 21.7557 81.8169 21.7443 81.5032C21.733 81.1895 21.7833 80.8766 21.8925 80.5824L29.0175 61.5157C29.1839 61.0556 29.4875 60.6581 29.8869 60.3771C30.2863 60.0962 30.7622 59.9455 31.25 59.9455C31.7378 59.9455 32.2137 60.0962 32.6131 60.3771C33.0125 60.6581 33.3161 61.0556 33.4825 61.5157L40.6075 80.5824C40.828 81.1765 40.8042 81.8343 40.5414 82.4109C40.2786 82.9874 39.7983 83.4356 39.2062 83.6569C38.6142 83.8781 37.9587 83.8542 37.3842 83.5905C36.8096 83.3268 36.363 82.8449 36.1425 82.2507Z" fill="#F17C31"/>
    <path d="M104.875 0.383301H52.625C51.3652 0.383301 50.157 0.885502 49.2662 1.77943C48.3754 2.67335 47.875 3.88577 47.875 5.14997V52.8166C47.875 54.0808 48.3754 55.2933 49.2662 56.1872C50.157 57.0811 51.3652 57.5833 52.625 57.5833H83.5L97.75 67.1166V57.5833H104.875C106.135 57.5833 107.343 57.0811 108.234 56.1872C109.125 55.2933 109.625 54.0808 109.625 52.8166V5.14997C109.625 3.88577 109.125 2.67335 108.234 1.77943C107.343 0.885502 106.135 0.383301 104.875 0.383301ZM88.25 21.8333C87.4663 21.8333 88.5825 26.4331 82.265 33.321C83.7596 34.4777 85.3485 35.5062 87.015 36.3955C87.5288 36.7057 87.9067 37.1996 88.0727 37.7778C88.2387 38.3561 88.1806 38.976 87.91 39.513C87.6394 40.0501 87.1764 40.4645 86.6139 40.6731C86.0514 40.8818 85.4311 40.8691 84.8775 40.6378C82.7025 39.51 80.6492 38.1603 78.75 36.61C76.8713 38.1534 74.8423 39.5028 72.6938 40.6378C72.1402 40.8691 71.5198 40.8818 70.9574 40.6731C70.3949 40.4645 69.9319 40.0501 69.6613 39.513C69.3907 38.976 69.3326 38.3561 69.4986 37.7778C69.6646 37.1996 70.0424 36.7057 70.5562 36.3955C72.2236 35.4986 73.8126 34.4621 75.3063 33.2971C74.4462 32.3694 73.6525 31.3818 72.9313 30.3418C72.6104 29.8229 72.5002 29.2003 72.6234 28.6023C72.7467 28.0043 73.0939 27.4766 73.5936 27.128C74.0933 26.7795 74.7072 26.6367 75.3087 26.7291C75.9102 26.8216 76.4534 27.1422 76.8263 27.6248C77.4355 28.4646 78.1021 29.261 78.8213 30.0081C81.0135 27.7417 82.5418 24.9135 83.2388 21.8333H69.25C68.6201 21.8333 68.016 21.5822 67.5706 21.1352C67.1252 20.6883 66.875 20.0821 66.875 19.45C66.875 18.8179 67.1252 18.2117 67.5706 17.7647C68.016 17.3177 68.6201 17.0666 69.25 17.0666H76.375V14.6833C76.375 14.0512 76.6252 13.445 77.0706 12.998C77.516 12.5511 78.1201 12.3 78.75 12.3C79.3799 12.3 79.984 12.5511 80.4294 12.998C80.8748 13.445 81.125 14.0512 81.125 14.6833V17.0666H88.25C88.8799 17.0666 89.484 17.3177 89.9294 17.7647C90.3748 18.2117 90.625 18.8179 90.625 19.45C90.625 20.0821 90.3748 20.6883 89.9294 21.1352C89.484 21.5822 88.8799 21.8333 88.25 21.8333Z" fill="#F17C31"/>
</svg>
    