<svg width="12" height="15" viewBox="0 0 12 15" fill="none" xmlns="http://www.w3.org/2000/svg">
<path d="M11.7103 4.87989L7.4103 0.589886C7.03558 0.217384 6.52868 0.00830078 6.0003 0.00830078C5.47193 0.00830078 4.96503 0.217384 4.5903 0.589886L0.290304 4.87989C0.104053 5.06725 -0.000488281 5.3207 -0.000488281 5.58489C-0.000488281 5.84907 0.104053 6.10252 0.290304 6.28989C0.383267 6.38361 0.493868 6.45801 0.615727 6.50878C0.737587 6.55955 0.868292 6.58568 1.0003 6.58568C1.13232 6.58568 1.26302 6.55955 1.38488 6.50878C1.50674 6.45801 1.61734 6.38361 1.7103 6.28989L5.0003 2.99989V13.9999C5.0003 14.2651 5.10566 14.5195 5.2932 14.707C5.48073 14.8945 5.73509 14.9999 6.0003 14.9999C6.26552 14.9999 6.51987 14.8945 6.70741 14.707C6.89495 14.5195 7.0003 14.2651 7.0003 13.9999V2.99989L10.2903 6.28989C10.4773 6.47819 10.7314 6.5845 10.9968 6.58544C11.2621 6.58638 11.517 6.48186 11.7053 6.29489C11.8936 6.10791 11.9999 5.85379 12.0009 5.58842C12.0018 5.32306 11.8973 5.06819 11.7103 4.87989Z" fill="white"/>
</svg>
