<svg width="19" height="22" viewBox="0 0 19 22" fill="none" xmlns="http://www.w3.org/2000/svg">
<path d="M11.12 16.023L6.92096 13.733C6.37276 14.319 5.66095 14.7266 4.87803 14.9028C4.09512 15.0791 3.27731 15.0157 2.53088 14.721C1.78445 14.4263 1.14392 13.9139 0.69253 13.2504C0.241137 12.5869 -0.000244141 11.803 -0.000244141 11.0005C-0.000244141 10.198 0.241137 9.41402 0.69253 8.75051C1.14392 8.08701 1.78445 7.57461 2.53088 7.27992C3.27731 6.98523 4.09512 6.92187 4.87803 7.09807C5.66095 7.27428 6.37276 7.6819 6.92096 8.26796L11.121 5.97796C10.8825 5.03403 10.9965 4.03555 11.4416 3.16966C11.8867 2.30378 12.6323 1.62994 13.5386 1.27446C14.445 0.918981 15.4499 0.906264 16.3649 1.23869C17.28 1.57112 18.0424 2.22588 18.5093 3.08022C18.9761 3.93457 19.1153 4.92985 18.9009 5.8795C18.6864 6.82916 18.1329 7.668 17.3442 8.23877C16.5555 8.80954 15.5857 9.07307 14.6166 8.97995C13.6475 8.88684 12.7456 8.44347 12.08 7.73296L7.87996 10.023C8.04116 10.6643 8.04116 11.3356 7.87996 11.977L12.079 14.267C12.7446 13.5564 13.6464 13.1131 14.6156 13.02C15.5847 12.9268 16.5545 13.1904 17.3432 13.7611C18.1319 14.3319 18.6854 15.1708 18.8999 16.1204C19.1143 17.0701 18.9751 18.0654 18.5083 18.9197C18.0414 19.774 17.279 20.4288 16.3639 20.7612C15.4489 21.0937 14.444 21.0809 13.5376 20.7255C12.6313 20.37 11.8857 19.6961 11.4406 18.8303C10.9955 17.9644 10.8815 16.9659 11.12 16.022V16.023ZM3.99996 13C4.5304 13 5.0391 12.7892 5.41418 12.4142C5.78925 12.0391 5.99996 11.5304 5.99996 11C5.99996 10.4695 5.78925 9.96082 5.41418 9.58575C5.0391 9.21067 4.5304 8.99996 3.99996 8.99996C3.46953 8.99996 2.96082 9.21067 2.58575 9.58575C2.21068 9.96082 1.99996 10.4695 1.99996 11C1.99996 11.5304 2.21068 12.0391 2.58575 12.4142C2.96082 12.7892 3.46953 13 3.99996 13ZM15 6.99996C15.5304 6.99996 16.0391 6.78925 16.4142 6.41417C16.7892 6.0391 17 5.53039 17 4.99996C17 4.46953 16.7892 3.96082 16.4142 3.58575C16.0391 3.21067 15.5304 2.99996 15 2.99996C14.4695 2.99996 13.9608 3.21067 13.5857 3.58575C13.2107 3.96082 13 4.46953 13 4.99996C13 5.53039 13.2107 6.0391 13.5857 6.41417C13.9608 6.78925 14.4695 6.99996 15 6.99996ZM15 19C15.5304 19 16.0391 18.7892 16.4142 18.4142C16.7892 18.0391 17 17.5304 17 17C17 16.4695 16.7892 15.9608 16.4142 15.5857C16.0391 15.2107 15.5304 15 15 15C14.4695 15 13.9608 15.2107 13.5857 15.5857C13.2107 15.9608 13 16.4695 13 17C13 17.5304 13.2107 18.0391 13.5857 18.4142C13.9608 18.7892 14.4695 19 15 19Z" fill="#3B2F43"/>
</svg>
